<?xml version="1.0" standalone="no"?>
<!DOCTYPE svg PUBLIC "-//W3C//DTD SVG 1.1//EN" "http://www.w3.org/Graphics/SVG/1.1/DTD/svg11.dtd" >
<svg xmlns="http://www.w3.org/2000/svg" width="100%" height="100%">
<metadata>
Created by FontXChange 20110222 at Wed May 25 17:58:19 2016
 By Derek Miranda
 The digitally encoded machine readable software for producing the Typefaces licensed to you is copyrighted (c) 1988, 1990, 1994 Adobe Systems. All Rights Reserved. This software is the property of Adobe Systems Incorporated and its licensors, and may not be reproduced, used,  displayed, modified, disclosed or transferred without the express  written approval of Adobe.  The digitally encoded machine readable outline data for producing the Typefaces licensed to you is copyrighted (c) 1981 Linotype-Hell AG and/or its subsidiaries. All Rights Reserved. This data is the property of Linotype-Hell AG and/or its subsidiaries and may not be reproduced, used, displayed, modified, disclosed or  transferred without the express written approval of Linotype-Hell AG  and/or its subsidiaries. 
</metadata>
<defs>
<font id="Frutiger-BlackItalic" horiz-adv-x="611" >
  <font-face 
    font-family="Frutiger"
    font-weight="900"
    font-style="italic"
    font-stretch="normal"
    units-per-em="1000"
    panose-1="2 0 10 3 0 0 0 0 0 0"
    ascent="800"
    descent="-200"
    x-height="521"
    cap-height="698"
    bbox="-192 -250 1090 947"
    underline-thickness="50"
    underline-position="-100"
    slope="-12"
    stemh="126"
    stemv="178"
    unicode-range="U+0020-FB02"
  />
    <missing-glyph />
    <glyph glyph-name="space" unicode=" " horiz-adv-x="306" 
 />
    <glyph glyph-name="exclam" unicode="!" horiz-adv-x="444" 
d="M153 229l76 469h186l-124 -469h-138zM89 0l34 162h169l-34 -162h-169z" />
    <glyph glyph-name="quotedbl" unicode="&#x22;" 
d="M408 427v271h132v-271h-132zM213 427v271h132v-271h-132z" />
    <glyph glyph-name="numbersign" unicode="#" horiz-adv-x="612" 
d="M77 187l10 108h89l15 110h-84l10 108h89l26 185h106l-26 -185h87l25 185h105l-25 -185h79l-10 -108h-84l-15 -110h79l-10 -108h-84l-26 -187h-105l26 187h-87l-26 -187h-106l26 187h-84zM369 295l15 110h-87l-15 -110h87z" />
    <glyph glyph-name="dollar" unicode="$" horiz-adv-x="612" 
d="M322 447l31 137c-54 -5 -92 -36 -92 -78c0 -30 23 -48 61 -59zM354 280l-36 -157c49 9 98 31 98 90c0 34 -29 53 -62 67zM199 -93l19 81c-82 0 -161 17 -199 34l44 138c57 -28 115 -36 184 -40l40 177c-95 30 -192 75 -188 189c0 152 145 224 282 224l18 80h70l-18 -80
c67 -3 129 -19 171 -33l-44 -133c-49 22 -102 38 -156 40l-34 -150c90 -26 190 -64 190 -191c0 -176 -134 -249 -290 -255l-19 -81h-70z" />
    <glyph glyph-name="percent" unicode="%" horiz-adv-x="1000" 
d="M576 143c0 112 68 224 196 224c100 0 159 -60 159 -158c0 -111 -67 -221 -200 -221c-98 0 -155 62 -155 155zM702 124c0 -14 4 -46 30 -46c49 0 73 111 73 144c0 17 0 55 -35 55c-49 0 -68 -117 -68 -153zM120 486c0 112 68 224 196 224c100 0 159 -60 159 -158
c0 -111 -67 -221 -200 -221c-98 0 -155 62 -155 155zM201 -22l540 742h110l-540 -742h-110zM246 467c0 -14 4 -46 30 -46c49 0 73 103 73 144c0 17 0 55 -35 55c-49 0 -68 -117 -68 -153z" />
    <glyph glyph-name="ampersand" unicode="&#x26;" horiz-adv-x="778" 
d="M316 529c0 -36 25 -70 43 -88c44 11 111 44 111 96c0 39 -31 63 -70 63c-51 0 -84 -27 -84 -71zM528 0l-31 41c-55 -42 -144 -53 -210 -53c-138 0 -244 61 -244 206c0 110 79 174 179 197c-37 36 -62 74 -62 134c0 123 129 185 242 185c108 0 218 -46 218 -168
c0 -101 -96 -162 -189 -190c37 -41 71 -83 104 -127c43 36 72 91 84 152h143c-16 -95 -66 -201 -146 -252l102 -125h-190zM205 186c0 -50 37 -78 100 -78c49 0 85 14 120 33c-41 50 -85 101 -130 155c-47 -21 -90 -54 -90 -110z" />
    <glyph glyph-name="quoteright" unicode="&#x2019;" horiz-adv-x="333" 
d="M83 427l115 271h178l-149 -271h-144z" />
    <glyph glyph-name="parenleft" unicode="(" horiz-adv-x="389" 
d="M365 756h136c-159 -161 -255 -351 -255 -581c0 -105 21 -212 69 -315h-136c-57 113 -95 220 -95 337c0 234 102 413 281 559z" />
    <glyph glyph-name="parenright" unicode=")" horiz-adv-x="389" 
d="M82 -140h-136c159 161 255 351 255 581c0 105 -21 212 -69 315h136c57 -113 95 -220 95 -337c0 -234 -102 -413 -281 -559z" />
    <glyph glyph-name="asterisk" unicode="*" 
d="M381 290l-43 135l-100 -118l-80 88l125 85l-138 53l59 105l121 -90l4 150l120 -21l-48 -140l140 36l16 -117h-145l74 -117z" />
    <glyph glyph-name="plus" unicode="+" horiz-adv-x="600" 
d="M62 190v126h190v190h126v-190h190v-126h-190v-190h-126v190h-190z" />
    <glyph glyph-name="comma" unicode="," horiz-adv-x="306" 
d="M-61 -109l115 271h178l-149 -271h-144z" />
    <glyph glyph-name="hyphen" unicode="-" horiz-adv-x="333" 
d="M30 203l26 132h271l-27 -132h-270z" />
    <glyph glyph-name="period" unicode="." horiz-adv-x="306" 
d="M20 0l34 162h169l-34 -162h-169z" />
    <glyph glyph-name="slash" unicode="/" horiz-adv-x="278" 
d="M2 -12l194 722h126l-194 -722h-126z" />
    <glyph glyph-name="zero" unicode="0" horiz-adv-x="612" 
d="M446 494c0 59 -22 89 -62 90c-122 0 -166 -306 -166 -381c0 -61 22 -89 68 -89c122 0 160 306 160 380zM48 241c0 240 112 469 333 469c151 0 235 -90 235 -253c0 -252 -116 -469 -333 -469c-151 0 -235 91 -235 253z" />
    <glyph glyph-name="one" unicode="1" horiz-adv-x="612" 
d="M206 0l118 514l-138 -94l-68 127l260 151h161l-147 -698h-186z" />
    <glyph glyph-name="two" unicode="2" horiz-adv-x="612" 
d="M1 0l22 121c265 187 381 267 381 352c0 70 -44 99 -98 99c-55 0 -121 -24 -169 -51l18 158c61 19 125 31 201 31c116 0 234 -56 234 -200c0 -178 -172 -284 -306 -376v-2h246l-27 -132h-502z" />
    <glyph glyph-name="three" unicode="3" horiz-adv-x="612" 
d="M176 292l25 127c20 -4 47 -4 72 -4c48 0 144 6 144 82c0 59 -60 75 -114 75c-52 0 -119 -15 -159 -32l18 145c52 13 132 25 199 25c113 0 242 -44 242 -174c0 -108 -79 -172 -184 -182v-2c79 -18 127 -60 127 -142c0 -174 -172 -222 -315 -222c-77 0 -163 14 -224 44
l35 134c61 -28 115 -40 183 -40c64 0 135 22 135 95c0 68 -68 74 -119 74c-20 0 -45 -1 -65 -3z" />
    <glyph glyph-name="four" unicode="4" horiz-adv-x="612" 
d="M334 259l71 295h-2l-237 -295h168zM271 0l28 133h-305l21 126l375 439h207l-95 -439h98l-25 -126h-100l-29 -133h-175z" />
    <glyph glyph-name="five" unicode="5" horiz-adv-x="612" 
d="M639 698l-23 -126h-300l-22 -112c168 0 271 -64 271 -211c0 -171 -168 -261 -324 -261c-64 0 -147 15 -206 41l28 137c55 -32 111 -40 158 -40c82 0 158 33 158 113c0 76 -69 101 -141 101c-47 0 -92 -6 -134 -15l79 373h456z" />
    <glyph glyph-name="six" unicode="6" horiz-adv-x="612" 
d="M406 231c0 51 -27 93 -78 93c-73 0 -102 -69 -102 -119c0 -51 23 -97 85 -97c64 0 95 67 95 123zM634 658l-43 -125c-43 29 -98 45 -150 45c-120 0 -165 -80 -185 -171l2 -2c34 27 76 39 119 39c118 0 199 -77 199 -208c0 -153 -103 -248 -256 -248
c-163 0 -256 99 -256 257c0 239 102 465 372 465c68 0 139 -17 198 -52z" />
    <glyph glyph-name="seven" unicode="7" horiz-adv-x="612" 
d="M646 698l-34 -158l-354 -540h-212l378 566h-312l27 132h507z" />
    <glyph glyph-name="eight" unicode="8" horiz-adv-x="612" 
d="M444 351v-1c73 -25 119 -75 119 -154c0 -67 -41 -208 -275 -208c-134 0 -258 70 -258 184c0 120 82 167 169 197c-55 26 -91 76 -91 133c0 130 108 208 264 208c122 0 242 -48 242 -181c0 -92 -80 -162 -170 -178zM278 510c0 -39 29 -71 59 -94c52 19 107 53 107 104
c0 48 -35 70 -76 70c-45 0 -90 -39 -90 -80zM200 188c0 -44 39 -74 91 -74c56 0 102 37 102 89c0 47 -33 76 -83 98c-55 -18 -110 -56 -110 -113z" />
    <glyph glyph-name="nine" unicode="9" horiz-adv-x="612" 
d="M253 467c0 -51 27 -93 78 -93c73 0 102 69 102 119c0 51 -23 97 -85 97c-64 0 -95 -67 -95 -123zM25 40l43 125c43 -29 98 -45 150 -45c120 0 165 80 185 171l-2 2c-34 -27 -76 -39 -119 -39c-118 0 -199 77 -199 208c0 153 103 248 256 248c163 0 256 -99 256 -257
c0 -239 -102 -465 -372 -465c-68 0 -139 17 -198 52z" />
    <glyph glyph-name="colon" unicode=":" horiz-adv-x="306" 
d="M95 359l34 162h169l-34 -162h-169zM20 0l34 162h169l-34 -162h-169z" />
    <glyph glyph-name="semicolon" unicode=";" horiz-adv-x="306" 
d="M-61 -109l115 271h178l-149 -271h-144zM95 359l34 162h169l-34 -162h-169z" />
    <glyph glyph-name="less" unicode="&#x3c;" horiz-adv-x="600" 
d="M568 514v-122l-341 -139l341 -139v-122l-506 208v106z" />
    <glyph glyph-name="equal" unicode="=" horiz-adv-x="600" 
d="M62 305v126h506v-126h-506zM62 75v126h506v-126h-506z" />
    <glyph glyph-name="greater" unicode="&#x3e;" horiz-adv-x="600" 
d="M62 -8v122l341 139l-341 139v122l506 -208v-106z" />
    <glyph glyph-name="question" unicode="?" horiz-adv-x="556" 
d="M117 549l21 137c55 13 111 24 168 24c114 0 254 -42 254 -164c0 -172 -188 -202 -228 -322h-142c12 158 190 197 190 294c0 32 -46 66 -107 66c-45 0 -107 -13 -156 -35zM131 0l34 162h169l-34 -162h-169z" />
    <glyph glyph-name="at" unicode="@" horiz-adv-x="800" 
d="M392 235c58 0 93 46 93 109c0 54 -33 93 -83 93c-59 0 -94 -53 -94 -106c0 -54 29 -96 84 -96zM613 137h102c-70 -97 -170 -149 -291 -149c-219 0 -387 151 -387 361c0 206 159 361 381 361c185 0 345 -113 345 -292c0 -221 -199 -279 -255 -279c-27 0 -50 16 -51 49h-2
c-24 -27 -61 -49 -101 -49c-82 0 -154 80 -154 193c0 104 76 201 190 201c49 0 91 -17 120 -57l9 47h94l-34 -209c-5 -26 -10 -45 -10 -55c0 -11 2 -19 13 -19c37 0 84 43 85 147c1 143 -79 227 -257 227c-157 0 -259 -113 -259 -267c0 -170 110 -263 271 -263
c84 0 148 23 191 53z" />
    <glyph glyph-name="A" unicode="A" horiz-adv-x="778" 
d="M-41 0l415 698h234l114 -698h-188l-19 149h-271l-83 -149h-202zM497 281l-30 273h-2l-148 -273h180z" />
    <glyph glyph-name="B" unicode="B" horiz-adv-x="667" 
d="M318 566l-30 -144h70c78 0 124 31 124 79c0 56 -46 65 -116 65h-48zM15 0l146 698h310c72 0 197 -28 197 -160c0 -94 -73 -164 -183 -177v-2c80 -12 135 -58 135 -135c0 -148 -127 -218 -287 -220zM261 296l-34 -164h50c94 0 157 26 157 94c0 61 -44 70 -128 70h-45z" />
    <glyph glyph-name="C" unicode="C" horiz-adv-x="667" 
d="M737 673l-44 -143c-59 34 -115 42 -174 42c-187 0 -262 -132 -262 -264c0 -124 79 -182 191 -182c67 0 128 14 177 39l-20 -150c-45 -15 -123 -27 -186 -27c-225 0 -354 133 -354 325c0 232 163 397 425 397c134 0 209 -23 247 -37z" />
    <glyph glyph-name="D" unicode="D" horiz-adv-x="778" 
d="M15 0l148 698h242c222 0 356 -94 356 -280c0 -292 -183 -418 -445 -418h-301zM321 560l-88 -422h82c183 0 254 137 254 267c0 128 -88 155 -202 155h-46z" />
    <glyph glyph-name="E" unicode="E" 
d="M15 0l150 698h491l-27 -132h-307l-32 -144h291l-29 -132h-290l-34 -158h319l-27 -132h-505z" />
    <glyph glyph-name="F" unicode="F" horiz-adv-x="556" 
d="M5 0l148 698h467l-26 -132h-284l-35 -153h274l-27 -132h-270l-59 -281h-188z" />
    <glyph glyph-name="G" unicode="G" horiz-adv-x="778" 
d="M761 676l-40 -142c-61 27 -121 38 -202 38c-187 0 -262 -132 -262 -264c0 -124 79 -182 174 -182c24 0 48 4 74 12l31 138h-111l27 132h293l-83 -389c-70 -21 -183 -31 -243 -31c-225 0 -354 133 -354 325c0 232 139 397 463 397c85 0 157 -14 233 -34z" />
    <glyph glyph-name="H" unicode="H" horiz-adv-x="722" 
d="M15 0l145 698h187l-55 -267h221l55 267h187l-145 -698h-187l62 299h-221l-62 -299h-187z" />
    <glyph glyph-name="I" unicode="I" horiz-adv-x="333" 
d="M23 0l145 698h188l-145 -698h-188z" />
    <glyph glyph-name="J" unicode="J" horiz-adv-x="444" 
d="M483 698l-95 -436c-27 -124 -43 -223 -163 -261c-42 -11 -82 -13 -122 -13c-53 0 -100 13 -136 23l38 151c26 -12 55 -18 84 -18c96 0 108 100 123 171l82 383h189z" />
    <glyph glyph-name="K" unicode="K" horiz-adv-x="722" 
d="M15 0l147 698h188l-60 -285h2l252 285h241l-332 -339l206 -359h-215l-172 317h-2l-67 -317h-188z" />
    <glyph glyph-name="L" unicode="L" horiz-adv-x="556" 
d="M15 0l145 698h189l-116 -560h292l-29 -138h-481z" />
    <glyph glyph-name="M" unicode="M" horiz-adv-x="944" 
d="M6 0l152 698h292l11 -469h2l219 469h298l-148 -698h-182l127 572h-2l-274 -572h-176l-26 572h-2l-121 -572h-170z" />
    <glyph glyph-name="N" unicode="N" horiz-adv-x="778" 
d="M13 0l149 698h233l143 -484h2l98 484h176l-148 -698h-232l-146 483h-2l-97 -483h-176z" />
    <glyph glyph-name="O" unicode="O" horiz-adv-x="778" 
d="M773 425c0 -264 -139 -437 -408 -437c-227 0 -310 141 -310 284c0 265 139 438 408 438c227 0 310 -141 310 -285zM581 410c0 88 -33 162 -130 162c-144 0 -204 -167 -204 -285c0 -88 33 -161 130 -161c144 0 204 167 204 284z" />
    <glyph glyph-name="P" unicode="P" 
d="M309 566l-40 -190h50c74 0 141 26 141 109c0 67 -46 81 -96 81h-55zM3 0l150 698h186c153 0 307 -16 307 -192c0 -174 -142 -262 -310 -262h-95l-52 -244h-186z" />
    <glyph glyph-name="Q" unicode="Q" horiz-adv-x="778" 
d="M581 410c0 88 -33 162 -130 162c-144 0 -204 -167 -204 -285c0 -88 33 -161 130 -161c144 0 204 167 204 284zM462 -132l-78 120h-19c-171 0 -310 88 -310 284c0 265 139 438 408 438c227 0 310 -141 310 -284c0 -196 -76 -342 -225 -404l132 -154h-218z" />
    <glyph glyph-name="R" unicode="R" horiz-adv-x="667" 
d="M317 566l-32 -158h63c81 0 144 20 144 86c0 50 -30 71 -86 72h-89zM15 0l147 698h223c133 -1 293 -5 293 -178c0 -123 -96 -166 -203 -179v-2c55 -5 73 -79 83 -124l50 -215h-186l-36 178c-18 91 -24 98 -108 98h-20l-56 -276h-187z" />
    <glyph glyph-name="S" unicode="S" 
d="M628 679l-45 -139c-36 17 -85 32 -154 32c-74 0 -134 -11 -134 -67c0 -99 271 -62 271 -274c0 -193 -179 -243 -341 -243c-72 0 -155 17 -216 36l44 142c37 -24 111 -40 172 -40c58 0 149 11 149 83c0 112 -271 70 -271 267c0 180 158 234 311 234c86 0 167 -9 214 -31z
" />
    <glyph glyph-name="T" unicode="T" horiz-adv-x="556" 
d="M134 0l119 560h-174l30 138h537l-30 -138h-174l-119 -560h-189z" />
    <glyph glyph-name="U" unicode="U" horiz-adv-x="722" 
d="M765 698l-68 -325c-46 -222 -100 -385 -354 -385c-157 0 -280 56 -280 220c0 55 8 100 15 132l79 358h189l-84 -395c-7 -33 -13 -60 -13 -76c0 -57 33 -101 99 -101c120 0 139 144 163 256l69 316h185z" />
    <glyph glyph-name="V" unicode="V" horiz-adv-x="722" 
d="M812 698l-386 -698h-230l-91 698h187l47 -528h2l270 528h201z" />
    <glyph glyph-name="W" unicode="W" horiz-adv-x="1000" 
d="M113 0l-4 698h184l-24 -536h2l207 536h238l-16 -536h2l200 536h188l-299 -698h-240l14 548h-2l-210 -548h-240z" />
    <glyph glyph-name="X" unicode="X" horiz-adv-x="722" 
d="M-38 0l308 370l-143 328h203l74 -222l163 222h226l-280 -333l154 -365h-203l-87 250l-189 -250h-226z" />
    <glyph glyph-name="Y" unicode="Y" horiz-adv-x="722" 
d="M217 0l54 258l-163 440h196l87 -281l193 281h229l-352 -440l-54 -258h-190z" />
    <glyph glyph-name="Z" unicode="Z" 
d="M109 560l28 138h538l-31 -148l-403 -412h319l-26 -138h-552l32 148l396 412h-301z" />
    <glyph glyph-name="bracketleft" unicode="[" horiz-adv-x="444" 
d="M50 -140l186 896h265l-23 -110h-115l-140 -676h115l-23 -110h-265z" />
    <glyph glyph-name="backslash" unicode="\" horiz-adv-x="278" 
d="M196 -12l-194 722h126l194 -722h-126z" />
    <glyph glyph-name="bracketright" unicode="]" horiz-adv-x="444" 
d="M425 756l-186 -896h-265l23 110h115l140 676h-115l23 110h265z" />
    <glyph glyph-name="asciicircum" unicode="^" horiz-adv-x="600" 
d="M110 333l174 365h112l174 -365h-122l-108 227l-108 -227h-122z" />
    <glyph glyph-name="underscore" unicode="_" horiz-adv-x="500" 
d="M0 -75h500v-50h-500v50z" />
    <glyph glyph-name="quoteleft" unicode="&#x2018;" horiz-adv-x="333" 
d="M379 698l-115 -271h-178l149 271h144z" />
    <glyph glyph-name="a" unicode="a" 
d="M359 0l8 73l-2 2v-2c-38 -60 -105 -85 -175 -85c-112 0 -174 50 -174 151c0 128 128 191 287 191c36 0 72 -3 97 -5c2 7 2 14 2 21c0 37 -37 67 -96 67c-65 0 -109 -10 -169 -41l18 131c53 18 110 30 191 30c124 0 226 -49 226 -177c0 -82 -46 -199 -66 -356h-147z
M186 160c0 -24 23 -52 61 -52c77 0 123 53 136 123c-15 3 -37 3 -48 3c-86 3 -149 -28 -149 -74z" />
    <glyph glyph-name="b" unicode="b" horiz-adv-x="667" 
d="M152 0h-167c12 33 24 78 36 130l138 620h177l-65 -292h2c45 48 100 75 168 75c128 0 194 -98 194 -215c0 -171 -86 -330 -274 -330c-89 0 -149 36 -181 110h-2zM227 232c0 -53 26 -106 86 -106c85 0 136 81 136 162c0 64 -29 107 -86 107c-85 0 -136 -94 -136 -163z" />
    <glyph glyph-name="c" unicode="c" horiz-adv-x="500" 
d="M458 143l-26 -135c-36 -12 -84 -20 -154 -20c-152 0 -246 107 -246 238c0 171 136 307 336 307c44 0 111 -13 164 -35l-39 -125c-37 17 -76 28 -116 28c-93 0 -159 -60 -159 -168c0 -62 48 -113 124 -113c45 0 77 7 116 23z" />
    <glyph glyph-name="d" unicode="d" horiz-adv-x="667" 
d="M403 0l14 83h-2c-46 -58 -89 -95 -189 -95c-112 0 -194 98 -194 215c0 171 86 330 264 330c91 0 154 -40 181 -96h2l63 313h177l-140 -672c-6 -31 -9 -57 -11 -78h-165zM304 126c85 0 136 94 136 163c0 52 -26 106 -86 106c-85 0 -136 -81 -136 -162
c0 -64 29 -107 86 -107z" />
    <glyph glyph-name="e" unicode="e" 
d="M505 144l-23 -127c-63 -19 -130 -29 -182 -29c-174 0 -268 107 -268 238c0 121 80 307 312 307c137 0 240 -69 240 -227c0 -21 -6 -67 -13 -98h-369c2 -56 30 -100 140 -100c48 0 113 12 163 36zM213 310h221c0 56 -22 103 -88 103c-78 0 -120 -53 -133 -103z" />
    <glyph glyph-name="f" unicode="f" horiz-adv-x="444" 
d="M73 0l84 395h-113l28 126h109l14 66c23 108 97 175 213 175c45 0 96 -5 134 -16l-34 -123c-18 7 -37 13 -57 13c-43 0 -70 -26 -83 -84l-7 -31h134l-28 -126h-132l-82 -395h-180z" />
    <glyph glyph-name="g" unicode="g" horiz-adv-x="667" 
d="M32 -189l35 140c47 -27 95 -40 151 -41c126 -2 171 46 199 179l-2 2c-40 -58 -99 -91 -170 -91c-143 0 -213 99 -213 237c0 161 111 296 279 296c79 0 150 -32 180 -107h2l23 95h167c-7 -28 -20 -69 -33 -125l-80 -355c-46 -202 -118 -263 -334 -263
c-90 0 -149 16 -204 33zM444 301c0 55 -33 94 -96 94c-90 0 -130 -88 -130 -161c0 -54 37 -96 94 -96c92 0 132 95 132 163z" />
    <glyph glyph-name="h" unicode="h" horiz-adv-x="667" 
d="M7 0l158 750h182l-64 -305h2c37 49 97 88 181 88c105 0 162 -78 162 -180c0 -35 -3 -55 -14 -110l-48 -243h-186l50 244c5 26 12 52 12 79c0 31 -20 62 -70 60c-76 0 -121 -66 -134 -143l-51 -240h-180z" />
    <glyph glyph-name="i" unicode="i" horiz-adv-x="333" 
d="M26 0l108 521h182l-108 -521h-182zM152 606l28 132h182l-28 -132h-182z" />
    <glyph glyph-name="j" unicode="j" horiz-adv-x="333" 
d="M-122 -207l29 115c10 -5 28 -10 48 -10c42 0 56 31 71 104l108 519h182l-108 -519c-32 -156 -86 -224 -243 -224c-30 0 -59 6 -87 15zM152 606l28 132h182l-28 -132h-182z" />
    <glyph glyph-name="k" unicode="k" 
d="M7 0l161 750h182l-96 -448h2l173 219h205l-215 -251l135 -270h-200l-107 258h-2l-55 -258h-183z" />
    <glyph glyph-name="l" unicode="l" horiz-adv-x="333" 
d="M26 0l156 750h182l-156 -750h-182z" />
    <glyph glyph-name="m" unicode="m" horiz-adv-x="944" 
d="M7 0l81 385c9 45 17 89 22 136h160l-20 -95l2 1c44 66 111 106 184 106c61 0 123 -35 137 -106c44 66 111 106 186 106c80 0 162 -39 162 -155c0 -34 -4 -80 -12 -117l-54 -261h-180l52 253c6 27 10 55 10 76c0 34 -16 54 -58 54c-75 0 -95 -87 -107 -143l-51 -240h-180
l52 253c6 27 10 55 10 76c0 34 -16 54 -58 54c-75 0 -95 -87 -107 -143l-51 -240h-180z" />
    <glyph glyph-name="n" unicode="n" horiz-adv-x="667" 
d="M7 0l81 385c9 45 17 89 22 136h167l-14 -85h2c52 58 106 97 201 97c105 0 162 -78 162 -180c0 -35 -3 -55 -14 -110l-48 -243h-186l50 244c5 26 12 52 12 79c0 31 -20 62 -70 60c-76 0 -121 -66 -134 -143l-51 -240h-180z" />
    <glyph glyph-name="o" unicode="o" horiz-adv-x="667" 
d="M453 302c0 54 -24 105 -94 105c-87 0 -141 -94 -141 -177c0 -70 37 -117 98 -116c84 0 137 70 137 188zM639 300c0 -217 -141 -312 -336 -312c-193 0 -271 107 -271 238c0 183 132 307 336 307c177 0 271 -102 271 -233z" />
    <glyph glyph-name="p" unicode="p" horiz-adv-x="667" 
d="M-55 -210l145 653c7 31 9 57 11 78h165l-14 -83h2c55 67 122 95 187 95c128 0 194 -98 194 -215c0 -171 -86 -330 -274 -330c-79 0 -130 34 -168 99l-66 -297h-182zM227 232c0 -53 26 -106 86 -106c85 0 136 81 136 162c0 64 -29 107 -86 107c-85 0 -136 -94 -136 -163z
" />
    <glyph glyph-name="q" unicode="q" horiz-adv-x="667" 
d="M339 -210l57 272h-2c-45 -47 -100 -74 -168 -74c-112 0 -194 98 -194 215c0 171 86 330 264 330c99 0 157 -40 189 -122h2l28 110h167c-10 -27 -22 -68 -32 -116l-129 -615h-182zM304 126c85 0 136 94 136 163c0 52 -26 106 -86 106c-85 0 -136 -81 -136 -162
c0 -64 29 -107 86 -107z" />
    <glyph glyph-name="r" unicode="r" horiz-adv-x="444" 
d="M110 521h167l-20 -107h2c29 61 87 119 161 119c24 0 52 -3 76 -13l-41 -159c-23 18 -49 22 -83 22c-76 0 -121 -66 -134 -143l-51 -240h-180l81 385c9 45 17 89 22 136z" />
    <glyph glyph-name="s" unicode="s" horiz-adv-x="500" 
d="M-4 15l36 123c46 -20 96 -30 146 -30c29 0 101 3 101 46c0 74 -215 36 -215 208c0 122 142 171 263 171c45 0 108 -10 173 -31l-38 -118c-46 19 -90 29 -144 29c-40 0 -84 -9 -84 -45c0 -58 225 -54 225 -185c0 -129 -109 -193 -244 -195c-79 -1 -163 11 -219 27z" />
    <glyph glyph-name="t" unicode="t" horiz-adv-x="444" 
d="M51 395l22 126h103l25 112l190 51l-36 -163h124l-22 -126h-131l-31 -145c-8 -39 -15 -65 -15 -90c0 -35 23 -58 59 -58c19 0 39 8 58 15l-20 -119c-38 -6 -76 -10 -112 -10c-92 0 -165 45 -165 154c0 26 4 52 16 107l31 146h-96z" />
    <glyph glyph-name="u" unicode="u" horiz-adv-x="667" 
d="M660 521l-81 -385c-9 -45 -17 -89 -22 -136h-167l14 85h-2c-52 -58 -106 -97 -201 -97c-105 0 -162 78 -162 180c0 35 3 55 14 110l48 243h186l-50 -244c-5 -26 -12 -52 -12 -79c0 -31 20 -62 70 -60c76 0 121 66 134 143l51 240h180z" />
    <glyph glyph-name="v" unicode="v" 
d="M664 521l-306 -521h-205l-85 521h181l36 -371h2l183 371h194z" />
    <glyph glyph-name="w" unicode="w" horiz-adv-x="944" 
d="M998 521l-273 -521h-209l-7 377h-2l-179 -377h-210l-50 521h179l5 -377h2l171 377h218l4 -377h2l167 377h182z" />
    <glyph glyph-name="x" unicode="x" 
d="M-42 0l236 272l-111 249h190l57 -156l110 156h213l-221 -256l123 -265h-195l-60 162l-120 -162h-222z" />
    <glyph glyph-name="y" unicode="y" 
d="M666 521l-342 -590c-53 -92 -112 -153 -227 -153c-64 0 -107 11 -141 22l38 131c23 -7 48 -15 82 -15c51 0 84 33 105 86l-115 519h183l47 -329h2l177 329h191z" />
    <glyph glyph-name="z" unicode="z" horiz-adv-x="500" 
d="M-24 0l26 136l284 253h-223l27 132h442l-28 -136l-286 -253h238l-27 -132h-453z" />
    <glyph glyph-name="braceleft" unicode="{" horiz-adv-x="389" 
d="M463 756l-19 -90h-54c-49 0 -59 -31 -66 -65l-41 -195c-17 -77 -82 -94 -135 -97v-2c45 -3 98 -8 98 -73c0 -10 -4 -30 -8 -49l-31 -153c-4 -21 -7 -38 -7 -48c0 -19 10 -34 41 -34h54l-18 -90h-86c-73 0 -129 27 -129 106c0 12 5 34 9 55l30 145c5 22 7 37 7 48
c0 45 -57 49 -78 49l18 90c36 0 93 3 106 66l41 199c20 99 83 138 182 138h86z" />
    <glyph glyph-name="bar" unicode="|" horiz-adv-x="222" 
d="M73 750h126v-1000h-126v1000z" />
    <glyph glyph-name="braceright" unicode="}" horiz-adv-x="389" 
d="M-44 -140l19 90h54c49 0 59 31 66 65l41 195c17 77 82 94 135 97v2c-45 3 -98 8 -98 73c0 10 4 30 8 49l31 153c4 21 7 38 7 48c0 19 -10 34 -41 34h-54l18 90h86c73 0 129 -27 129 -106c0 -12 -5 -34 -9 -55l-30 -145c-5 -22 -7 -37 -7 -48c0 -45 57 -49 78 -49l-18 -90
c-36 0 -93 -3 -106 -66l-41 -199c-20 -99 -83 -138 -182 -138h-86z" />
    <glyph glyph-name="asciitilde" unicode="~" horiz-adv-x="600" 
d="M510 353l36 -109c-22 -42 -58 -86 -125 -86c-81 0 -150 64 -213 64c-40 0 -65 -35 -88 -69l-36 109c22 42 58 86 125 86c81 0 150 -64 213 -64c40 0 65 35 88 69z" />
    <glyph glyph-name="exclamdown" unicode="&#xa1;" horiz-adv-x="444" 
d="M302 292l-76 -469h-186l124 469h138zM366 521l-34 -162h-169l34 162h169z" />
    <glyph glyph-name="cent" unicode="&#xa2;" horiz-adv-x="612" 
d="M326 134l81 267c-86 -6 -144 -65 -144 -168c0 -43 24 -81 63 -99zM243 -140l40 132c-129 16 -206 115 -206 234c0 171 136 307 336 307c10 0 20 -1 33 -3l36 118h70l-39 -130c22 -5 44 -12 64 -20l-39 -125c-20 10 -40 17 -62 23l-83 -276c42 1 73 8 110 23l-26 -135
c-30 -10 -69 -18 -124 -20l-39 -128h-71z" />
    <glyph glyph-name="sterling" unicode="&#xa3;" horiz-adv-x="612" 
d="M-5 0l26 132h99l41 190h-86l21 90h84l21 83c34 133 109 215 290 215c57 0 112 -8 167 -23l-40 -131c-32 9 -81 16 -135 16c-79 0 -94 -38 -110 -113l-10 -47h151l-19 -90h-151l-40 -190h226l-28 -132h-507z" />
    <glyph glyph-name="fraction" unicode="&#x2044;" horiz-adv-x="167" 
d="M-192 -22l494 742h110l-494 -742h-110z" />
    <glyph glyph-name="yen" unicode="&#xa5;" horiz-adv-x="612" 
d="M167 0l28 138h-141l19 84h138l7 36l-7 24h-133l19 84h88l-101 332h186l62 -281l174 281h197l-230 -332h96l-19 -84h-135l-17 -24l-7 -36h144l-19 -84h-141l-28 -138h-180z" />
    <glyph glyph-name="florin" unicode="&#x192;" horiz-adv-x="612" 
d="M100 314l21 108h126l15 78c22 113 71 210 194 210c47 0 98 -13 131 -30l-24 -121c-14 10 -35 25 -64 25c-46 0 -55 -45 -66 -104l-11 -58h124l-21 -108h-121l-55 -287c-25 -128 -70 -249 -214 -249c-47 0 -98 14 -120 26l24 122c13 -13 34 -22 62 -22s49 18 62 88l62 322
h-125z" />
    <glyph glyph-name="section" unicode="&#xa7;" 
d="M595 659l-37 -115c-41 23 -114 46 -164 46c-54 0 -93 -10 -93 -48c0 -77 255 -107 255 -246c0 -81 -49 -136 -125 -153c29 -25 53 -65 53 -101c0 -116 -110 -180 -252 -180c-77 0 -158 22 -225 60l37 112c55 -30 114 -52 177 -52c66 0 93 14 93 49
c0 83 -237 106 -237 262c0 75 52 122 122 142c-40 33 -60 65 -60 109c0 102 117 166 237 166c87 0 158 -17 219 -51zM221 306c0 -43 99 -88 129 -110c33 25 56 42 56 81c0 44 -91 88 -121 105c-34 -17 -64 -33 -64 -76z" />
    <glyph glyph-name="currency" unicode="&#xa4;" horiz-adv-x="612" 
d="M46 151l58 57c-34 34 -46 94 -46 141s12 107 46 141l-58 57l63 62l57 -54c35 28 96 42 140 42s105 -14 140 -42l57 54l63 -62l-58 -57c34 -34 46 -94 46 -141s-12 -107 -46 -141l58 -57l-63 -62l-57 54c-35 -28 -96 -42 -140 -42s-105 14 -140 42l-57 -54zM306 227
c67 0 116 52 116 122s-49 122 -116 122s-116 -52 -116 -122s49 -122 116 -122z" />
    <glyph glyph-name="quotesingle" unicode="'" horiz-adv-x="333" 
d="M159 427v271h132v-271h-132z" />
    <glyph glyph-name="quotedblleft" unicode="&#x201c;" 
d="M399 698l-115 -271h-178l149 271h144zM634 698l-115 -271h-178l149 271h144z" />
    <glyph glyph-name="guillemotleft" unicode="&#xab;" horiz-adv-x="667" 
d="M188 65l-163 204l188 204h176l-199 -204l161 -204h-163zM454 65l-151 204l188 204h176l-199 -204l149 -204h-163z" />
    <glyph glyph-name="guilsinglleft" unicode="&#x2039;" horiz-adv-x="389" 
d="M176 65l-151 204l188 204h176l-199 -204l149 -204h-163z" />
    <glyph glyph-name="guilsinglright" unicode="&#x203a;" horiz-adv-x="389" 
d="M215 473l149 -204l-188 -204h-176l199 204l-147 204h163z" />
    <glyph glyph-name="fi" unicode="&#xfb01;" horiz-adv-x="778" 
d="M597 606l28 132h182l-28 -132h-182zM471 0l108 521h182l-108 -521h-182zM73 0l84 395h-113l28 126h109l14 66c23 108 97 175 213 175c45 0 96 -5 134 -16l-34 -123c-18 7 -37 13 -57 13c-43 0 -70 -26 -83 -84l-7 -31h134l-28 -126h-132l-82 -395h-180z" />
    <glyph glyph-name="fl" unicode="&#xfb02;" horiz-adv-x="778" 
d="M471 0l156 750h182l-156 -750h-182zM73 0l84 395h-113l28 126h109l14 66c23 108 97 175 213 175c45 0 96 -5 134 -16l-34 -123c-18 7 -37 13 -57 13c-43 0 -70 -26 -83 -84l-7 -31h134l-28 -126h-132l-82 -395h-180z" />
    <glyph glyph-name="endash" unicode="&#x2013;" horiz-adv-x="500" 
d="M0 206l28 126h500l-28 -126h-500z" />
    <glyph glyph-name="dagger" unicode="&#x2020;" 
d="M78 399l28 132h174l34 167h165l-34 -167h174l-28 -132h-174l-83 -399h-165l83 399h-174z" />
    <glyph glyph-name="daggerdbl" unicode="&#x2021;" 
d="M91 442l25 120h172l28 136h165l-28 -136h172l-25 -120h-172l-39 -187h172l-25 -120h-172l-28 -135h-165l28 135h-172l25 120h172l39 187h-172z" />
    <glyph glyph-name="periodcentered" unicode="&#xb7;" horiz-adv-x="306" 
d="M170 179c-51 0 -93 42 -93 93s42 93 93 93s93 -42 93 -93s-42 -93 -93 -93z" />
    <glyph glyph-name="paragraph" unicode="&#xb6;" horiz-adv-x="620" 
d="M435 608l-153 -734h-120l99 475c-112 0 -190 43 -190 152c0 160 163 197 288 197h312l-172 -824h-120l153 734h-97z" />
    <glyph glyph-name="bullet" unicode="&#x2022;" horiz-adv-x="500" 
d="M92 349c0 96 78 174 174 174s175 -78 175 -174s-79 -175 -175 -175s-174 79 -174 175z" />
    <glyph glyph-name="quotesinglbase" unicode="&#x201a;" horiz-adv-x="333" 
d="M-30 -109l115 271h178l-149 -271h-144z" />
    <glyph glyph-name="quotedblbase" unicode="&#x201e;" 
d="M-2 -109l115 271h178l-149 -271h-144zM233 -109l115 271h178l-149 -271h-144z" />
    <glyph glyph-name="quotedblright" unicode="&#x201d;" 
d="M341 427l115 271h178l-149 -271h-144zM106 427l115 271h178l-149 -271h-144z" />
    <glyph glyph-name="guillemotright" unicode="&#xbb;" horiz-adv-x="667" 
d="M215 473l149 -204l-188 -204h-176l199 204l-147 204h163zM493 473l149 -204l-188 -204h-176l199 204l-147 204h163z" />
    <glyph glyph-name="ellipsis" unicode="&#x2026;" horiz-adv-x="1000" 
d="M34 0l34 162h169l-34 -162h-169zM367 0l34 162h169l-34 -162h-169zM700 0l34 162h169l-34 -162h-169z" />
    <glyph glyph-name="perthousand" unicode="&#x2030;" horiz-adv-x="1000" 
d="M496 72c47 0 65 114 65 143c0 19 -6 36 -30 36c-47 0 -62 -112 -62 -140c0 -15 4 -39 27 -39zM493 -12c-87 0 -126 58 -126 137c0 98 52 210 160 210c102 0 136 -55 136 -137c0 -110 -57 -210 -170 -210zM23 -22l572 742h104l-571 -742h-105zM191 363
c-87 0 -126 58 -126 137c0 98 52 210 160 210c102 0 136 -55 136 -137c0 -110 -57 -210 -170 -210zM194 447c47 0 65 114 65 143c0 19 -6 36 -30 36c-47 0 -62 -112 -62 -140c0 -15 4 -39 27 -39zM816 -12c-87 0 -126 58 -126 137c0 98 52 210 160 210
c102 0 136 -55 136 -137c0 -110 -57 -210 -170 -210zM819 72c47 0 65 114 65 143c0 19 -6 36 -30 36c-47 0 -62 -112 -62 -140c0 -15 4 -39 27 -39z" />
    <glyph glyph-name="questiondown" unicode="&#xbf;" horiz-adv-x="556" 
d="M439 -28l-21 -137c-55 -13 -111 -24 -168 -24c-114 0 -254 42 -254 164c0 172 188 202 228 322h142c-12 -158 -190 -197 -190 -294c0 -32 46 -66 107 -66c45 0 107 13 156 35zM425 521l-34 -162h-169l34 162h169z" />
    <glyph glyph-name="grave" unicode="`" horiz-adv-x="278" 
d="M222 585l-165 122v22h187l96 -132v-12h-118z" />
    <glyph glyph-name="acute" unicode="&#xb4;" horiz-adv-x="278" 
d="M131 597l96 132h187v-22l-165 -122h-118v12z" />
    <glyph glyph-name="circumflex" unicode="&#x2c6;" horiz-adv-x="278" 
d="M16 597l137 132h161l86 -132v-12h-111l-62 78l-87 -78h-124v12z" />
    <glyph glyph-name="tilde" unicode="&#x2dc;" horiz-adv-x="278" 
d="M345 729h72c-9 -76 -47 -141 -129 -141c-52 0 -109 36 -142 36c-31 0 -43 -14 -49 -39h-72c8 70 47 141 127 141c53 0 107 -36 143 -36c27 0 45 12 50 39z" />
    <glyph glyph-name="macron" unicode="&#xaf;" horiz-adv-x="278" 
d="M403 623h-375l16 84h375z" />
    <glyph glyph-name="breve" unicode="&#x2d8;" horiz-adv-x="278" 
d="M43 729h81c8 -57 44 -73 101 -73c45 0 96 31 108 73h88c-33 -106 -105 -157 -215 -157c-91 0 -163 62 -163 157z" />
    <glyph glyph-name="dotaccent" unicode="&#x2d9;" horiz-adv-x="278" 
d="M337 729l-30 -144h-138l30 144h138z" />
    <glyph glyph-name="dieresis" unicode="&#xa8;" horiz-adv-x="278" 
d="M430 729l-30 -144h-138l30 144h138zM213 729l-30 -144h-138l30 144h138z" />
    <glyph glyph-name="ring" unicode="&#x2da;" horiz-adv-x="278" 
d="M115 678c0 61 51 112 112 112c62 0 112 -51 112 -112s-50 -112 -112 -112c-61 0 -112 51 -112 112zM175 678c0 -28 24 -52 52 -52s52 24 52 52s-24 52 -52 52s-52 -24 -52 -52z" />
    <glyph glyph-name="cedilla" unicode="&#xb8;" horiz-adv-x="278" 
d="M39 -88l64 88h72l-53 -63l2 -2c12 5 26 6 50 6c39 0 75 -26 75 -79c0 -63 -69 -84 -125 -84c-50 0 -93 7 -131 27l22 42c26 -12 50 -23 79 -23c25 0 53 9 53 30c0 31 -16 41 -35 41c-12 0 -24 -4 -36 -6z" />
    <glyph glyph-name="hungarumlaut" unicode="&#x2dd;" horiz-adv-x="278" 
d="M94 729h187v-22l-165 -122h-118v12zM363 729h187v-22l-165 -122h-118v12z" />
    <glyph glyph-name="ogonek" unicode="&#x2db;" horiz-adv-x="278" 
d="M141 0h61c-41 -32 -86 -71 -86 -112c0 -28 21 -44 43 -44c26 0 50 12 62 25l38 -14c-38 -58 -79 -77 -134 -77c-75 0 -111 31 -111 88c0 63 65 104 127 134z" />
    <glyph glyph-name="caron" unicode="&#x2c7;" horiz-adv-x="278" 
d="M296 585h-161l-86 132v12h111l62 -78l87 78h124v-12z" />
    <glyph glyph-name="emdash" unicode="&#x2014;" horiz-adv-x="1000" 
d="M0 206l28 126h1000l-28 -126h-1000z" />
    <glyph glyph-name="AE" unicode="&#xc6;" horiz-adv-x="944" 
d="M-28 0l455 698h534l-28 -132h-237l-22 -144h211l-27 -132h-201l-24 -158h219l-28 -132h-388l22 149h-197l-85 -149h-204zM477 281l43 283h-2l-177 -283h136z" />
    <glyph glyph-name="ordfeminine" unicode="&#xaa;" horiz-adv-x="397" 
d="M154 617l12 68c38 17 78 25 119 25c73 0 157 -22 157 -104c0 -23 -5 -45 -11 -71l-23 -101c-3 -14 -4 -27 -5 -46h-105l6 49h-2c-36 -42 -84 -57 -137 -57c-61 0 -97 38 -97 86c0 101 121 120 174 120c38 0 62 -1 87 -2c1 8 3 15 3 21c0 28 -42 35 -68 35
c-38 0 -77 -10 -110 -23zM178 486c0 -25 17 -36 46 -36c50 0 94 37 98 74c-18 1 -42 2 -70 2c-42 0 -74 -10 -74 -40z" />
    <glyph glyph-name="Lslash" unicode="&#x141;" horiz-adv-x="556" 
d="M15 0l43 208l-73 -38l23 109l73 38l79 381h189l-56 -269l202 106l-23 -110l-202 -106l-37 -181h292l-29 -138h-481z" />
    <glyph glyph-name="Oslash" unicode="&#xd8;" horiz-adv-x="778" 
d="M571 482l-253 -344c16 -8 36 -12 59 -12c144 0 204 167 204 284c0 26 -3 51 -10 72zM253 227l248 337c-15 5 -31 8 -50 8c-144 0 -204 -167 -204 -285c0 -21 2 -42 6 -60zM55 -42l80 109c-57 54 -80 129 -80 205c0 265 139 438 408 438c51 0 95 -7 131 -20l82 111l86 -61
l-76 -102c62 -56 87 -134 87 -213c0 -264 -139 -437 -408 -437c-55 0 -101 8 -141 23l-84 -114z" />
    <glyph glyph-name="OE" unicode="&#x152;" horiz-adv-x="963" 
d="M1013 698l-28 -132h-251l-30 -144h234l-26 -132h-234l-31 -158h260l-26 -132h-402c-47 0 -93 -6 -141 -6c-198 0 -301 141 -301 319c0 218 178 391 397 391c59 0 118 -6 177 -6h402zM462 136l92 426c-26 2 -65 4 -98 4c-137 0 -227 -128 -227 -272
c0 -108 58 -162 167 -162c26 0 46 2 66 4z" />
    <glyph glyph-name="ordmasculine" unicode="&#xba;" horiz-adv-x="434" 
d="M194 528c0 -37 21 -64 63 -64c55 0 89 42 89 87c0 41 -13 75 -61 75c-54 0 -91 -49 -91 -98zM472 560c0 -111 -88 -180 -220 -180c-99 0 -184 33 -184 134c0 127 93 196 226 196c102 0 178 -51 178 -150z" />
    <glyph glyph-name="ae" unicode="&#xe6;" horiz-adv-x="889" 
d="M873 208h-356c-2 -44 22 -100 127 -100c48 0 113 12 163 36l-23 -127c-63 -19 -130 -29 -182 -29c-62 0 -140 19 -185 107c-57 -71 -135 -107 -240 -107c-112 0 -174 50 -174 151c0 128 128 191 287 191c36 0 72 -3 97 -5c2 7 2 14 2 21c0 37 -37 67 -96 67
c-65 0 -109 -10 -169 -41l18 131c53 18 110 30 191 30c59 0 117 -11 167 -57c41 35 89 57 170 57c110 0 216 -69 216 -227c0 -21 -6 -67 -13 -98zM175 160c0 -24 23 -52 61 -52c77 0 123 53 136 123c-15 3 -37 3 -48 3c-86 3 -149 -28 -149 -74zM539 310h203
c0 56 -22 103 -85 103c-78 0 -112 -53 -118 -103z" />
    <glyph glyph-name="dotlessi" unicode="&#x131;" horiz-adv-x="333" 
d="M26 0l108 521h182l-108 -521h-182z" />
    <glyph glyph-name="lslash" unicode="&#x142;" horiz-adv-x="333" 
d="M26 0l57 276l-87 -46l22 101l86 45l78 374h182l-56 -267l85 44l-21 -99l-85 -44l-79 -384h-182z" />
    <glyph glyph-name="oslash" unicode="&#xf8;" horiz-adv-x="667" 
d="M448 341l-164 -222c10 -4 21 -5 32 -5c84 0 137 70 137 188c0 14 -1 27 -5 39zM223 189l159 215c-6 2 -14 3 -23 3c-87 0 -141 -94 -141 -177c0 -14 2 -28 5 -41zM61 -30l53 72c-57 43 -82 109 -82 184c0 183 132 307 336 307c37 0 70 -5 100 -13l67 90l72 -54l-56 -75
c58 -43 88 -107 88 -181c0 -217 -141 -312 -336 -312c-41 0 -76 5 -106 14l-64 -86z" />
    <glyph glyph-name="oe" unicode="&#x153;" horiz-adv-x="944" 
d="M862 144l-23 -127c-63 -19 -130 -29 -182 -29c-58 0 -120 20 -165 67c-58 -48 -136 -67 -214 -67c-152 0 -246 107 -246 238c0 223 166 307 314 307c56 0 141 -17 187 -76c43 41 95 76 192 76c110 0 216 -69 216 -227c0 -21 -6 -67 -13 -98h-356c-2 -44 22 -100 127 -100
c48 0 113 12 163 36zM202 230c0 -71 27 -115 90 -116c79 0 132 70 132 180c0 79 -31 113 -92 113c-76 0 -130 -82 -130 -177zM594 310h203c0 56 -22 103 -85 103c-78 0 -112 -53 -118 -103z" />
    <glyph glyph-name="germandbls" unicode="&#xdf;" horiz-adv-x="667" 
d="M7 0l105 493c37 183 112 269 305 269c115 0 260 -34 260 -179c0 -116 -71 -180 -187 -192v-2c92 -21 139 -83 139 -158c0 -137 -103 -237 -273 -237c-41 0 -90 4 -119 8l28 129c18 -7 38 -11 61 -11c56 0 123 44 123 125c0 76 -55 82 -120 82l26 126h35
c48 0 107 33 107 103c0 57 -33 86 -81 86c-66 0 -105 -73 -119 -136l-109 -506h-181z" />
    <glyph glyph-name="divide" unicode="&#xf7;" horiz-adv-x="600" 
d="M62 190v126h506v-126h-506zM221 461c0 51 42 93 93 93s93 -42 93 -93s-42 -93 -93 -93s-93 42 -93 93zM221 45c0 51 42 93 93 93s93 -42 93 -93s-42 -93 -93 -93s-93 42 -93 93z" />
    <glyph glyph-name="threequarters" unicode="&#xbe;" horiz-adv-x="916" 
d="M222 -22l494 742h110l-494 -742h-110zM131 595l11 100c34 8 86 15 139 15c76 0 160 -26 160 -108c0 -71 -65 -112 -132 -118v-2c58 -10 95 -35 95 -85c0 -95 -116 -123 -211 -123c-62 0 -112 8 -150 26l22 94c39 -16 74 -24 118 -24c40 0 83 14 83 43c0 32 -39 36 -64 36
c-21 0 -38 -1 -51 -1l17 86c13 -1 30 -1 56 -1c34 0 79 13 79 47c0 28 -29 34 -68 34c-35 0 -78 -9 -104 -19zM731 161l29 139h-2l-126 -139h99zM696 0l16 71h-200l16 82l243 267h146l-53 -259h59l-17 -90h-60l-15 -71h-135z" />
    <glyph glyph-name="onequarter" unicode="&#xbc;" horiz-adv-x="916" 
d="M144 -22l494 742h110l-494 -742h-110zM105 282l63 288l-83 -48l-38 83l170 97h115l-87 -420h-140zM699 161l29 139h-2l-126 -139h99zM664 0l16 71h-200l16 82l243 267h146l-53 -259h59l-17 -90h-60l-15 -71h-135z" />
    <glyph glyph-name="onesuperior" unicode="&#xb9;" horiz-adv-x="398" 
d="M156 282l63 288l-83 -48l-38 83l170 97h115l-87 -420h-140z" />
    <glyph glyph-name="multiply" unicode="&#xd7;" horiz-adv-x="600" 
d="M229 253l-152 152l86 86l152 -152l152 152l86 -86l-153 -152l153 -152l-86 -86l-152 153l-152 -153l-86 86z" />
    <glyph glyph-name="registered" unicode="&#xae;" horiz-adv-x="800" 
d="M400 -12c-199 0 -361 162 -361 361s162 361 361 361s361 -162 361 -361s-162 -361 -361 -361zM400 90c136 0 247 111 247 259s-111 259 -247 259s-247 -111 -247 -259s111 -259 247 -259zM257 154v393h160c98 0 151 -27 151 -115c0 -74 -47 -105 -110 -108l94 -170h-96
l-86 164h-17v-164h-96zM353 471v-77h58c36 0 61 11 61 43c0 30 -39 34 -69 34h-50z" />
    <glyph glyph-name="Thorn" unicode="&#xde;" 
d="M290 479l-40 -190h50c74 0 141 26 141 109c0 67 -46 81 -96 81h-55zM3 0l150 698h186l-19 -87c153 0 307 -16 307 -207c0 -159 -142 -247 -310 -247h-95l-33 -157h-186z" />
    <glyph glyph-name="brokenbar" unicode="&#xa6;" horiz-adv-x="222" 
d="M73 675h126v-350h-126v350zM73 175h126v-350h-126v350z" />
    <glyph glyph-name="Eth" unicode="&#xd0;" horiz-adv-x="778" 
d="M15 0l66 312h-68l22 102h68l60 284h242c222 0 356 -94 356 -307c0 -265 -193 -391 -445 -391h-301zM321 560l-31 -146h166l-22 -102h-165l-36 -174h61c185 0 275 97 275 256c0 130 -76 166 -212 166h-36z" />
    <glyph glyph-name="onehalf" unicode="&#xbd;" horiz-adv-x="916" 
d="M122 -22l494 742h110l-494 -742h-110zM105 282l63 288l-83 -48l-38 83l170 97h115l-87 -420h-140zM502 0l13 72l79 53c82 55 160 111 160 156c0 34 -29 51 -55 51c-36 0 -79 -14 -110 -28l12 102c39 15 81 22 136 22c80 0 161 -33 161 -126c0 -96 -92 -150 -206 -210v-2
h167l-19 -90h-338z" />
    <glyph glyph-name="minus" unicode="&#x2212;" horiz-adv-x="600" 
d="M62 190v126h506v-126h-506z" />
    <glyph glyph-name="ccedilla" unicode="&#xe7;" horiz-adv-x="500" 
d="M458 143l-26 -135c-30 -10 -67 -17 -119 -19l-44 -52l2 -2c12 5 26 6 50 6c39 0 75 -26 75 -79c0 -63 -69 -84 -125 -84c-50 0 -93 7 -131 27l22 42c26 -12 50 -23 79 -23c25 0 53 9 53 30c0 31 -16 41 -35 41c-12 0 -24 -4 -36 -6l-37 23l58 79
c-132 14 -212 114 -212 235c0 171 136 307 336 307c44 0 111 -13 164 -35l-39 -125c-37 17 -76 28 -116 28c-93 0 -159 -60 -159 -168c0 -62 48 -113 124 -113c45 0 77 7 116 23z" />
    <glyph glyph-name="eth" unicode="&#xf0;" horiz-adv-x="667" 
d="M218 230c0 -71 25 -116 98 -116c84 0 137 70 137 165c0 45 -21 102 -94 102c-84 0 -141 -82 -141 -151zM192 614l102 37c-29 23 -58 40 -82 53l128 82c36 -18 76 -44 114 -77l118 43l40 -64l-99 -35c70 -75 126 -175 126 -293c0 -257 -137 -372 -331 -372
c-160 0 -276 88 -276 228c0 188 132 291 270 291c62 0 98 -15 143 -62h2c-18 62 -53 112 -91 151l-125 -45z" />
    <glyph glyph-name="plusminus" unicode="&#xb1;" horiz-adv-x="600" 
d="M62 268v126h190v112h126v-112h190v-126h-190v-112h-126v112h-190zM62 0v126h506v-126h-506z" />
    <glyph glyph-name="Ccedilla" unicode="&#xc7;" horiz-adv-x="667" 
d="M625 165l-20 -150c-42 -14 -112 -25 -173 -26l-43 -52l2 -2c12 5 26 6 50 6c39 0 75 -26 75 -79c0 -63 -69 -84 -125 -84c-50 0 -93 7 -131 27l22 42c26 -12 50 -23 79 -23c25 0 53 9 53 30c0 31 -16 41 -35 41c-12 0 -24 -4 -36 -6l-37 23l57 79
c-191 21 -298 147 -298 322c0 232 163 397 425 397c134 0 209 -23 247 -37l-44 -143c-59 34 -115 42 -174 42c-187 0 -262 -132 -262 -264c0 -124 79 -182 191 -182c67 0 128 14 177 39z" />
    <glyph glyph-name="thorn" unicode="&#xfe;" horiz-adv-x="667" 
d="M-55 -210l214 960h177l-65 -292h2c45 48 100 75 168 75c128 0 194 -98 194 -215c0 -171 -86 -330 -274 -330c-79 0 -130 34 -168 99l-66 -297h-182zM227 232c0 -53 26 -106 86 -106c85 0 136 81 136 162c0 64 -29 107 -86 107c-85 0 -136 -94 -136 -163z" />
    <glyph glyph-name="copyright" unicode="&#xa9;" horiz-adv-x="800" 
d="M477 292h96c-2 -94 -64 -151 -168 -151c-121 0 -194 89 -194 208c0 118 73 207 194 207c104 0 166 -57 168 -151h-96c-11 36 -27 55 -72 55c-50 0 -80 -44 -80 -111c0 -68 30 -112 80 -112c45 0 61 19 72 55zM39 349c0 199 162 361 361 361s361 -162 361 -361
s-162 -361 -361 -361s-361 162 -361 361zM153 349c0 -148 111 -259 247 -259s247 111 247 259s-111 259 -247 259s-247 -111 -247 -259z" />
    <glyph glyph-name="logicalnot" unicode="&#xac;" horiz-adv-x="600" 
d="M62 305v126h506v-323h-126v197h-380z" />
    <glyph glyph-name="twosuperior" unicode="&#xb2;" horiz-adv-x="398" 
d="M36 282l13 72l79 53c82 55 160 111 160 156c0 34 -29 51 -55 51c-36 0 -79 -14 -110 -28l12 102c39 15 81 22 136 22c80 0 161 -33 161 -126c0 -96 -92 -150 -206 -210v-2h167l-19 -90h-338z" />
    <glyph glyph-name="threesuperior" unicode="&#xb3;" horiz-adv-x="398" 
d="M131 595l11 100c34 8 86 15 139 15c76 0 160 -26 160 -108c0 -71 -65 -112 -132 -118v-2c58 -10 95 -35 95 -85c0 -95 -116 -123 -211 -123c-62 0 -112 8 -150 26l22 94c39 -16 74 -24 118 -24c40 0 83 14 83 43c0 32 -39 36 -64 36c-21 0 -38 -1 -51 -1l17 86
c13 -1 30 -1 56 -1c34 0 79 13 79 47c0 28 -29 34 -68 34c-35 0 -78 -9 -104 -19z" />
    <glyph glyph-name="trademark" unicode="&#x2122;" horiz-adv-x="1000" 
d="M154 282v326h-117v90h344v-90h-117v-326h-110zM477 282v416h156l86 -242h2l86 242h156v-416h-110v272h-2l-88 -272h-86l-88 272h-2v-272h-110z" />
    <glyph glyph-name="degree" unicode="&#xb0;" horiz-adv-x="400" 
d="M108 563c0 81 66 147 147 147s147 -66 147 -147s-66 -147 -147 -147s-147 66 -147 147zM186 563c0 -38 31 -69 69 -69s69 31 69 69s-31 69 -69 69s-69 -31 -69 -69z" />
    <glyph glyph-name="mu" unicode="&#x3bc;" horiz-adv-x="667" 
d="M660 521l-81 -385c-9 -45 -17 -89 -22 -136h-167l14 85h-2c-52 -58 -106 -97 -201 -97c-8 0 -18 1 -25 2l-38 -200h-179l142 731h186l-50 -244c-5 -26 -12 -52 -12 -79c0 -31 20 -62 70 -60c76 0 121 66 134 143l51 240h180z" />
    <glyph glyph-name="Aacute" unicode="&#xc1;" horiz-adv-x="778" 
d="M-41 0l415 698h234l114 -698h-188l-19 149h-271l-83 -149h-202zM497 281l-30 273h-2l-148 -273h180zM411 759l96 132h187v-22l-165 -122h-118v12z" />
    <glyph glyph-name="Acircumflex" unicode="&#xc2;" horiz-adv-x="778" 
d="M-41 0l415 698h234l114 -698h-188l-19 149h-271l-83 -149h-202zM497 281l-30 273h-2l-148 -273h180zM296 759l137 132h161l86 -132v-12h-111l-62 78l-87 -78h-124v12z" />
    <glyph glyph-name="Adieresis" unicode="&#xc4;" horiz-adv-x="778" 
d="M-41 0l415 698h234l114 -698h-188l-19 149h-271l-83 -149h-202zM497 281l-30 273h-2l-148 -273h180zM710 891l-30 -144h-138l30 144h138zM493 891l-30 -144h-138l30 144h138z" />
    <glyph glyph-name="Agrave" unicode="&#xc0;" horiz-adv-x="778" 
d="M-41 0l415 698h234l114 -698h-188l-19 149h-271l-83 -149h-202zM497 281l-30 273h-2l-148 -273h180zM472 747l-165 122v22h187l96 -132v-12h-118z" />
    <glyph glyph-name="Aring" unicode="&#xc5;" horiz-adv-x="778" 
d="M-41 0l415 698h234l114 -698h-188l-19 149h-271l-83 -149h-202zM497 281l-30 273h-2l-148 -273h180zM395 835c0 61 51 112 112 112c62 0 112 -51 112 -112s-50 -112 -112 -112c-61 0 -112 51 -112 112zM455 835c0 -28 24 -52 52 -52s52 24 52 52s-24 52 -52 52
s-52 -24 -52 -52z" />
    <glyph glyph-name="Atilde" unicode="&#xc3;" horiz-adv-x="778" 
d="M-41 0l415 698h234l114 -698h-188l-19 149h-271l-83 -149h-202zM497 281l-30 273h-2l-148 -273h180zM625 891h72c-9 -76 -47 -141 -129 -141c-52 0 -109 36 -142 36c-31 0 -43 -14 -49 -39h-72c8 70 47 141 127 141c53 0 107 -36 143 -36c27 0 45 12 50 39z" />
    <glyph glyph-name="Eacute" unicode="&#xc9;" 
d="M15 0l150 698h491l-27 -132h-307l-32 -144h291l-29 -132h-290l-34 -158h319l-27 -132h-505zM313 759l96 132h187v-22l-165 -122h-118v12z" />
    <glyph glyph-name="Ecircumflex" unicode="&#xca;" 
d="M15 0l150 698h491l-27 -132h-307l-32 -144h291l-29 -132h-290l-34 -158h319l-27 -132h-505zM198 759l137 132h161l86 -132v-12h-111l-62 78l-87 -78h-124v12z" />
    <glyph glyph-name="Edieresis" unicode="&#xcb;" 
d="M15 0l150 698h491l-27 -132h-307l-32 -144h291l-29 -132h-290l-34 -158h319l-27 -132h-505zM612 891l-30 -144h-138l30 144h138zM395 891l-30 -144h-138l30 144h138z" />
    <glyph glyph-name="Egrave" unicode="&#xc8;" 
d="M15 0l150 698h491l-27 -132h-307l-32 -144h291l-29 -132h-290l-34 -158h319l-27 -132h-505zM389 747l-165 122v22h187l96 -132v-12h-118z" />
    <glyph glyph-name="Iacute" unicode="&#xcd;" horiz-adv-x="333" 
d="M23 0l145 698h188l-145 -698h-188zM189 759l96 132h187v-22l-165 -122h-118v12z" />
    <glyph glyph-name="Icircumflex" unicode="&#xce;" horiz-adv-x="333" 
d="M23 0l145 698h188l-145 -698h-188zM74 759l137 132h161l86 -132v-12h-111l-62 78l-87 -78h-124v12z" />
    <glyph glyph-name="Idieresis" unicode="&#xcf;" horiz-adv-x="333" 
d="M23 0l145 698h188l-145 -698h-188zM488 891l-30 -144h-138l30 144h138zM271 891l-30 -144h-138l30 144h138z" />
    <glyph glyph-name="Igrave" unicode="&#xcc;" horiz-adv-x="333" 
d="M23 0l145 698h188l-145 -698h-188zM235 747l-165 122v22h187l96 -132v-12h-118z" />
    <glyph glyph-name="Ntilde" unicode="&#xd1;" horiz-adv-x="778" 
d="M13 0l149 698h233l143 -484h2l98 484h176l-148 -698h-232l-146 483h-2l-97 -483h-176zM625 891h72c-9 -76 -47 -141 -129 -141c-52 0 -109 36 -142 36c-31 0 -43 -14 -49 -39h-72c8 70 47 141 127 141c53 0 107 -36 143 -36c27 0 45 12 50 39z" />
    <glyph glyph-name="Oacute" unicode="&#xd3;" horiz-adv-x="778" 
d="M773 425c0 -264 -139 -437 -408 -437c-227 0 -310 141 -310 284c0 265 139 438 408 438c227 0 310 -141 310 -285zM581 410c0 88 -33 162 -130 162c-144 0 -204 -167 -204 -285c0 -88 33 -161 130 -161c144 0 204 167 204 284zM381 759l96 132h187v-22l-165 -122h-118v12
z" />
    <glyph glyph-name="Ocircumflex" unicode="&#xd4;" horiz-adv-x="778" 
d="M773 425c0 -264 -139 -437 -408 -437c-227 0 -310 141 -310 284c0 265 139 438 408 438c227 0 310 -141 310 -285zM581 410c0 88 -33 162 -130 162c-144 0 -204 -167 -204 -285c0 -88 33 -161 130 -161c144 0 204 167 204 284zM266 759l137 132h161l86 -132v-12h-111
l-62 78l-87 -78h-124v12z" />
    <glyph glyph-name="Odieresis" unicode="&#xd6;" horiz-adv-x="778" 
d="M773 425c0 -264 -139 -437 -408 -437c-227 0 -310 141 -310 284c0 265 139 438 408 438c227 0 310 -141 310 -285zM581 410c0 88 -33 162 -130 162c-144 0 -204 -167 -204 -285c0 -88 33 -161 130 -161c144 0 204 167 204 284zM680 891l-30 -144h-138l30 144h138z
M463 891l-30 -144h-138l30 144h138z" />
    <glyph glyph-name="Ograve" unicode="&#xd2;" horiz-adv-x="778" 
d="M773 425c0 -264 -139 -437 -408 -437c-227 0 -310 141 -310 284c0 265 139 438 408 438c227 0 310 -141 310 -285zM581 410c0 88 -33 162 -130 162c-144 0 -204 -167 -204 -285c0 -88 33 -161 130 -161c144 0 204 167 204 284zM445 747l-165 122v22h187l96 -132v-12h-118
z" />
    <glyph glyph-name="Otilde" unicode="&#xd5;" horiz-adv-x="778" 
d="M773 425c0 -264 -139 -437 -408 -437c-227 0 -310 141 -310 284c0 265 139 438 408 438c227 0 310 -141 310 -285zM581 410c0 88 -33 162 -130 162c-144 0 -204 -167 -204 -285c0 -88 33 -161 130 -161c144 0 204 167 204 284zM595 891h72c-9 -76 -47 -141 -129 -141
c-52 0 -109 36 -142 36c-31 0 -43 -14 -49 -39h-72c8 70 47 141 127 141c53 0 107 -36 143 -36c27 0 45 12 50 39z" />
    <glyph glyph-name="Scaron" unicode="&#x160;" 
d="M628 679l-45 -139c-36 17 -85 32 -154 32c-74 0 -134 -11 -134 -67c0 -99 271 -62 271 -274c0 -193 -179 -243 -341 -243c-72 0 -155 17 -216 36l44 142c37 -24 111 -40 172 -40c58 0 149 11 149 83c0 112 -271 70 -271 267c0 180 158 234 311 234c86 0 167 -9 214 -31z
M463 747h-161l-86 132v12h111l62 -78l87 78h124v-12z" />
    <glyph glyph-name="Uacute" unicode="&#xda;" horiz-adv-x="722" 
d="M765 698l-68 -325c-46 -222 -100 -385 -354 -385c-157 0 -280 56 -280 220c0 55 8 100 15 132l79 358h189l-84 -395c-7 -33 -13 -60 -13 -76c0 -57 33 -101 99 -101c120 0 139 144 163 256l69 316h185zM383 759l96 132h187v-22l-165 -122h-118v12z" />
    <glyph glyph-name="Ucircumflex" unicode="&#xdb;" horiz-adv-x="722" 
d="M765 698l-68 -325c-46 -222 -100 -385 -354 -385c-157 0 -280 56 -280 220c0 55 8 100 15 132l79 358h189l-84 -395c-7 -33 -13 -60 -13 -76c0 -57 33 -101 99 -101c120 0 139 144 163 256l69 316h185zM268 759l137 132h161l86 -132v-12h-111l-62 78l-87 -78h-124v12z
" />
    <glyph glyph-name="Udieresis" unicode="&#xdc;" horiz-adv-x="722" 
d="M765 698l-68 -325c-46 -222 -100 -385 -354 -385c-157 0 -280 56 -280 220c0 55 8 100 15 132l79 358h189l-84 -395c-7 -33 -13 -60 -13 -76c0 -57 33 -101 99 -101c120 0 139 144 163 256l69 316h185zM682 891l-30 -144h-138l30 144h138zM465 891l-30 -144h-138l30 144
h138z" />
    <glyph glyph-name="Ugrave" unicode="&#xd9;" horiz-adv-x="722" 
d="M765 698l-68 -325c-46 -222 -100 -385 -354 -385c-157 0 -280 56 -280 220c0 55 8 100 15 132l79 358h189l-84 -395c-7 -33 -13 -60 -13 -76c0 -57 33 -101 99 -101c120 0 139 144 163 256l69 316h185zM417 747l-165 122v22h187l96 -132v-12h-118z" />
    <glyph glyph-name="Yacute" unicode="&#xdd;" horiz-adv-x="722" 
d="M217 0l54 258l-163 440h196l87 -281l193 281h229l-352 -440l-54 -258h-190zM353 759l96 132h187v-22l-165 -122h-118v12z" />
    <glyph glyph-name="Ydieresis" unicode="&#x178;" horiz-adv-x="722" 
d="M217 0l54 258l-163 440h196l87 -281l193 281h229l-352 -440l-54 -258h-190zM652 891l-30 -144h-138l30 144h138zM435 891l-30 -144h-138l30 144h138z" />
    <glyph glyph-name="Zcaron" unicode="&#x17d;" 
d="M109 560l28 138h538l-31 -148l-403 -412h319l-26 -138h-552l32 148l396 412h-301zM463 747h-161l-86 132v12h111l62 -78l87 78h124v-12z" />
    <glyph glyph-name="aacute" unicode="&#xe1;" 
d="M359 0l8 73l-2 2v-2c-38 -60 -105 -85 -175 -85c-112 0 -174 50 -174 151c0 128 128 191 287 191c36 0 72 -3 97 -5c2 7 2 14 2 21c0 37 -37 67 -96 67c-65 0 -109 -10 -169 -41l18 131c53 18 110 30 191 30c124 0 226 -49 226 -177c0 -82 -46 -199 -66 -356h-147z
M186 160c0 -24 23 -52 61 -52c77 0 123 53 136 123c-15 3 -37 3 -48 3c-86 3 -149 -28 -149 -74zM280 597l96 132h187v-22l-165 -122h-118v12z" />
    <glyph glyph-name="acircumflex" unicode="&#xe2;" 
d="M359 0l8 73l-2 2v-2c-38 -60 -105 -85 -175 -85c-112 0 -174 50 -174 151c0 128 128 191 287 191c36 0 72 -3 97 -5c2 7 2 14 2 21c0 37 -37 67 -96 67c-65 0 -109 -10 -169 -41l18 131c53 18 110 30 191 30c124 0 226 -49 226 -177c0 -82 -46 -199 -66 -356h-147z
M186 160c0 -24 23 -52 61 -52c77 0 123 53 136 123c-15 3 -37 3 -48 3c-86 3 -149 -28 -149 -74zM183 597l137 132h161l86 -132v-12h-111l-62 78l-87 -78h-124v12z" />
    <glyph glyph-name="adieresis" unicode="&#xe4;" 
d="M359 0l8 73l-2 2v-2c-38 -60 -105 -85 -175 -85c-112 0 -174 50 -174 151c0 128 128 191 287 191c36 0 72 -3 97 -5c2 7 2 14 2 21c0 37 -37 67 -96 67c-65 0 -109 -10 -169 -41l18 131c53 18 110 30 191 30c124 0 226 -49 226 -177c0 -82 -46 -199 -66 -356h-147z
M186 160c0 -24 23 -52 61 -52c77 0 123 53 136 123c-15 3 -37 3 -48 3c-86 3 -149 -28 -149 -74zM597 729l-30 -144h-138l30 144h138zM380 729l-30 -144h-138l30 144h138z" />
    <glyph glyph-name="agrave" unicode="&#xe0;" 
d="M359 0l8 73l-2 2v-2c-38 -60 -105 -85 -175 -85c-112 0 -174 50 -174 151c0 128 128 191 287 191c36 0 72 -3 97 -5c2 7 2 14 2 21c0 37 -37 67 -96 67c-65 0 -109 -10 -169 -41l18 131c53 18 110 30 191 30c124 0 226 -49 226 -177c0 -82 -46 -199 -66 -356h-147z
M186 160c0 -24 23 -52 61 -52c77 0 123 53 136 123c-15 3 -37 3 -48 3c-86 3 -149 -28 -149 -74zM371 585l-165 122v22h187l96 -132v-12h-118z" />
    <glyph glyph-name="aring" unicode="&#xe5;" 
d="M359 0l8 73l-2 2v-2c-38 -60 -105 -85 -175 -85c-112 0 -174 50 -174 151c0 128 128 191 287 191c36 0 72 -3 97 -5c2 7 2 14 2 21c0 37 -37 67 -96 67c-65 0 -109 -10 -169 -41l18 131c53 18 110 30 191 30c124 0 226 -49 226 -177c0 -82 -46 -199 -66 -356h-147z
M186 160c0 -24 23 -52 61 -52c77 0 123 53 136 123c-15 3 -37 3 -48 3c-86 3 -149 -28 -149 -74zM282 678c0 61 51 112 112 112c62 0 112 -51 112 -112s-50 -112 -112 -112c-61 0 -112 51 -112 112zM342 678c0 -28 24 -52 52 -52s52 24 52 52s-24 52 -52 52s-52 -24 -52 -52
z" />
    <glyph glyph-name="atilde" unicode="&#xe3;" 
d="M359 0l8 73l-2 2v-2c-38 -60 -105 -85 -175 -85c-112 0 -174 50 -174 151c0 128 128 191 287 191c36 0 72 -3 97 -5c2 7 2 14 2 21c0 37 -37 67 -96 67c-65 0 -109 -10 -169 -41l18 131c53 18 110 30 191 30c124 0 226 -49 226 -177c0 -82 -46 -199 -66 -356h-147z
M186 160c0 -24 23 -52 61 -52c77 0 123 53 136 123c-15 3 -37 3 -48 3c-86 3 -149 -28 -149 -74zM512 729h72c-9 -76 -47 -141 -129 -141c-52 0 -109 36 -142 36c-31 0 -43 -14 -49 -39h-72c8 70 47 141 127 141c53 0 107 -36 143 -36c27 0 45 12 50 39z" />
    <glyph glyph-name="eacute" unicode="&#xe9;" 
d="M505 144l-23 -127c-63 -19 -130 -29 -182 -29c-174 0 -268 107 -268 238c0 121 80 307 312 307c137 0 240 -69 240 -227c0 -21 -6 -67 -13 -98h-369c2 -56 30 -100 140 -100c48 0 113 12 163 36zM213 310h221c0 56 -22 103 -88 103c-78 0 -120 -53 -133 -103zM298 597
l96 132h187v-22l-165 -122h-118v12z" />
    <glyph glyph-name="ecircumflex" unicode="&#xea;" 
d="M505 144l-23 -127c-63 -19 -130 -29 -182 -29c-174 0 -268 107 -268 238c0 121 80 307 312 307c137 0 240 -69 240 -227c0 -21 -6 -67 -13 -98h-369c2 -56 30 -100 140 -100c48 0 113 12 163 36zM213 310h221c0 56 -22 103 -88 103c-78 0 -120 -53 -133 -103zM183 597
l137 132h161l86 -132v-12h-111l-62 78l-87 -78h-124v12z" />
    <glyph glyph-name="edieresis" unicode="&#xeb;" 
d="M505 144l-23 -127c-63 -19 -130 -29 -182 -29c-174 0 -268 107 -268 238c0 121 80 307 312 307c137 0 240 -69 240 -227c0 -21 -6 -67 -13 -98h-369c2 -56 30 -100 140 -100c48 0 113 12 163 36zM213 310h221c0 56 -22 103 -88 103c-78 0 -120 -53 -133 -103zM597 729
l-30 -144h-138l30 144h138zM380 729l-30 -144h-138l30 144h138z" />
    <glyph glyph-name="egrave" unicode="&#xe8;" 
d="M505 144l-23 -127c-63 -19 -130 -29 -182 -29c-174 0 -268 107 -268 238c0 121 80 307 312 307c137 0 240 -69 240 -227c0 -21 -6 -67 -13 -98h-369c2 -56 30 -100 140 -100c48 0 113 12 163 36zM213 310h221c0 56 -22 103 -88 103c-78 0 -120 -53 -133 -103zM389 585
l-165 122v22h187l96 -132v-12h-118z" />
    <glyph glyph-name="iacute" unicode="&#xed;" horiz-adv-x="333" 
d="M26 0l108 521h182l-108 -521h-182zM119 597l96 132h187v-22l-165 -122h-118v12z" />
    <glyph glyph-name="icircumflex" unicode="&#xee;" horiz-adv-x="333" 
d="M26 0l108 521h182l-108 -521h-182zM44 597l137 132h161l86 -132v-12h-111l-62 78l-87 -78h-124v12z" />
    <glyph glyph-name="idieresis" unicode="&#xef;" horiz-adv-x="333" 
d="M26 0l108 521h182l-108 -521h-182zM458 729l-30 -144h-138l30 144h138zM241 729l-30 -144h-138l30 144h138z" />
    <glyph glyph-name="igrave" unicode="&#xec;" horiz-adv-x="333" 
d="M26 0l108 521h182l-108 -521h-182zM210 585l-165 122v22h187l96 -132v-12h-118z" />
    <glyph glyph-name="ntilde" unicode="&#xf1;" horiz-adv-x="667" 
d="M7 0l81 385c9 45 17 89 22 136h167l-14 -85h2c52 58 106 97 201 97c105 0 162 -78 162 -180c0 -35 -3 -55 -14 -110l-48 -243h-186l50 244c5 26 12 52 12 79c0 31 -20 62 -70 60c-76 0 -121 -66 -134 -143l-51 -240h-180zM540 729h72c-9 -76 -47 -141 -129 -141
c-52 0 -109 36 -142 36c-31 0 -43 -14 -49 -39h-72c8 70 47 141 127 141c53 0 107 -36 143 -36c27 0 45 12 50 39z" />
    <glyph glyph-name="oacute" unicode="&#xf3;" horiz-adv-x="667" 
d="M453 302c0 54 -24 105 -94 105c-87 0 -141 -94 -141 -177c0 -70 37 -117 98 -116c84 0 137 70 137 188zM639 300c0 -217 -141 -312 -336 -312c-193 0 -271 107 -271 238c0 183 132 307 336 307c177 0 271 -102 271 -233zM326 597l96 132h187v-22l-165 -122h-118v12z" />
    <glyph glyph-name="ocircumflex" unicode="&#xf4;" horiz-adv-x="667" 
d="M453 302c0 54 -24 105 -94 105c-87 0 -141 -94 -141 -177c0 -70 37 -117 98 -116c84 0 137 70 137 188zM639 300c0 -217 -141 -312 -336 -312c-193 0 -271 107 -271 238c0 183 132 307 336 307c177 0 271 -102 271 -233zM211 597l137 132h161l86 -132v-12h-111l-62 78
l-87 -78h-124v12z" />
    <glyph glyph-name="odieresis" unicode="&#xf6;" horiz-adv-x="667" 
d="M453 302c0 54 -24 105 -94 105c-87 0 -141 -94 -141 -177c0 -70 37 -117 98 -116c84 0 137 70 137 188zM639 300c0 -217 -141 -312 -336 -312c-193 0 -271 107 -271 238c0 183 132 307 336 307c177 0 271 -102 271 -233zM625 729l-30 -144h-138l30 144h138zM408 729
l-30 -144h-138l30 144h138z" />
    <glyph glyph-name="ograve" unicode="&#xf2;" horiz-adv-x="667" 
d="M453 302c0 54 -24 105 -94 105c-87 0 -141 -94 -141 -177c0 -70 37 -117 98 -116c84 0 137 70 137 188zM639 300c0 -217 -141 -312 -336 -312c-193 0 -271 107 -271 238c0 183 132 307 336 307c177 0 271 -102 271 -233zM352 585l-165 122v22h187l96 -132v-12h-118z" />
    <glyph glyph-name="otilde" unicode="&#xf5;" horiz-adv-x="667" 
d="M453 302c0 54 -24 105 -94 105c-87 0 -141 -94 -141 -177c0 -70 37 -117 98 -116c84 0 137 70 137 188zM639 300c0 -217 -141 -312 -336 -312c-193 0 -271 107 -271 238c0 183 132 307 336 307c177 0 271 -102 271 -233zM540 729h72c-9 -76 -47 -141 -129 -141
c-52 0 -109 36 -142 36c-31 0 -43 -14 -49 -39h-72c8 70 47 141 127 141c53 0 107 -36 143 -36c27 0 45 12 50 39z" />
    <glyph glyph-name="scaron" unicode="&#x161;" horiz-adv-x="500" 
d="M-4 15l36 123c46 -20 96 -30 146 -30c29 0 101 3 101 46c0 74 -215 36 -215 208c0 122 142 171 263 171c45 0 108 -10 173 -31l-38 -118c-46 19 -90 29 -144 29c-40 0 -84 -9 -84 -45c0 -58 225 -54 225 -185c0 -129 -109 -193 -244 -195c-79 -1 -163 11 -219 27z
M407 585h-161l-86 132v12h111l62 -78l87 78h124v-12z" />
    <glyph glyph-name="uacute" unicode="&#xfa;" horiz-adv-x="667" 
d="M660 521l-81 -385c-9 -45 -17 -89 -22 -136h-167l14 85h-2c-52 -58 -106 -97 -201 -97c-105 0 -162 78 -162 180c0 35 3 55 14 110l48 243h186l-50 -244c-5 -26 -12 -52 -12 -79c0 -31 20 -62 70 -60c76 0 121 66 134 143l51 240h180zM326 597l96 132h187v-22l-165 -122
h-118v12z" />
    <glyph glyph-name="ucircumflex" unicode="&#xfb;" horiz-adv-x="667" 
d="M660 521l-81 -385c-9 -45 -17 -89 -22 -136h-167l14 85h-2c-52 -58 -106 -97 -201 -97c-105 0 -162 78 -162 180c0 35 3 55 14 110l48 243h186l-50 -244c-5 -26 -12 -52 -12 -79c0 -31 20 -62 70 -60c76 0 121 66 134 143l51 240h180zM211 597l137 132h161l86 -132v-12
h-111l-62 78l-87 -78h-124v12z" />
    <glyph glyph-name="udieresis" unicode="&#xfc;" horiz-adv-x="667" 
d="M660 521l-81 -385c-9 -45 -17 -89 -22 -136h-167l14 85h-2c-52 -58 -106 -97 -201 -97c-105 0 -162 78 -162 180c0 35 3 55 14 110l48 243h186l-50 -244c-5 -26 -12 -52 -12 -79c0 -31 20 -62 70 -60c76 0 121 66 134 143l51 240h180zM625 729l-30 -144h-138l30 144h138z
M408 729l-30 -144h-138l30 144h138z" />
    <glyph glyph-name="ugrave" unicode="&#xf9;" horiz-adv-x="667" 
d="M660 521l-81 -385c-9 -45 -17 -89 -22 -136h-167l14 85h-2c-52 -58 -106 -97 -201 -97c-105 0 -162 78 -162 180c0 35 3 55 14 110l48 243h186l-50 -244c-5 -26 -12 -52 -12 -79c0 -31 20 -62 70 -60c76 0 121 66 134 143l51 240h180zM352 585l-165 122v22h187l96 -132
v-12h-118z" />
    <glyph glyph-name="yacute" unicode="&#xfd;" 
d="M666 521l-342 -590c-53 -92 -112 -153 -227 -153c-64 0 -107 11 -141 22l38 131c23 -7 48 -15 82 -15c51 0 84 33 105 86l-115 519h183l47 -329h2l177 329h191zM298 597l96 132h187v-22l-165 -122h-118v12z" />
    <glyph glyph-name="ydieresis" unicode="&#xff;" 
d="M666 521l-342 -590c-53 -92 -112 -153 -227 -153c-64 0 -107 11 -141 22l38 131c23 -7 48 -15 82 -15c51 0 84 33 105 86l-115 519h183l47 -329h2l177 329h191zM597 729l-30 -144h-138l30 144h138zM380 729l-30 -144h-138l30 144h138z" />
    <glyph glyph-name="zcaron" unicode="&#x17e;" horiz-adv-x="500" 
d="M-24 0l26 136l284 253h-223l27 132h442l-28 -136l-286 -253h238l-27 -132h-453zM407 585h-161l-86 132v12h111l62 -78l87 78h124v-12z" />
  </font>
</defs>
</svg>
